<mxfile host="app.diagrams.net" agent="Mozilla/5.0 (Windows NT 10.0; Win64; x64) AppleWebKit/537.36 (KHTML, like Gecko) Chrome/121.0.0.0 Safari/537.36" version="26.0.9">
  <diagram name="Trang-1" id="-iI0ajV_jWrtfbaZNYJB">
    <mxGraphModel dx="1000" dy="505" grid="1" gridSize="10" guides="1" tooltips="1" connect="1" arrows="1" fold="1" page="1" pageScale="1" pageWidth="827" pageHeight="1169" math="0" shadow="0">
      <root>
        <mxCell id="0" />
        <mxCell id="1" parent="0" />
        <mxCell id="ewB_EQgGH9OoBPIya-YJ-13" value="Region: us-west-2" style="rounded=0;whiteSpace=wrap;html=1;verticalAlign=top;align=left;" parent="1" vertex="1">
          <mxGeometry x="40" y="20" width="1570" height="480" as="geometry" />
        </mxCell>
        <mxCell id="XLqZRH3eE8Jt26kJiIYi-4" value="Database_SecurityGroup, Ports: 27017" style="rounded=0;whiteSpace=wrap;html=1;align=left;verticalAlign=top;" vertex="1" parent="1">
          <mxGeometry x="1210" y="280" width="230" height="110" as="geometry" />
        </mxCell>
        <mxCell id="XLqZRH3eE8Jt26kJiIYi-3" value="BackEnd_SecurityGroup, Ports: 8080" style="rounded=0;whiteSpace=wrap;html=1;align=left;verticalAlign=top;" vertex="1" parent="1">
          <mxGeometry x="860" y="285" width="210" height="110" as="geometry" />
        </mxCell>
        <mxCell id="XLqZRH3eE8Jt26kJiIYi-2" value="&lt;blockquote style=&quot;margin: 0 0 0 40px; border: none; padding: 0px;&quot;&gt;FrontEnd_SecurityGroup, Ports: 3000&lt;/blockquote&gt;" style="rounded=0;whiteSpace=wrap;html=1;align=left;verticalAlign=top;" vertex="1" parent="1">
          <mxGeometry x="860" y="40" width="310" height="110" as="geometry" />
        </mxCell>
        <mxCell id="XLqZRH3eE8Jt26kJiIYi-1" value="ALB_&lt;span style=&quot;background-color: transparent;&quot;&gt;SecurityGroup, Ports: 80, 443&lt;/span&gt;" style="rounded=0;whiteSpace=wrap;html=1;align=left;verticalAlign=top;" vertex="1" parent="1">
          <mxGeometry x="350" y="95" width="460" height="225" as="geometry" />
        </mxCell>
        <mxCell id="ewB_EQgGH9OoBPIya-YJ-3" value="" style="edgeStyle=orthogonalEdgeStyle;rounded=0;orthogonalLoop=1;jettySize=auto;html=1;" parent="1" source="ewB_EQgGH9OoBPIya-YJ-1" target="ewB_EQgGH9OoBPIya-YJ-2" edge="1">
          <mxGeometry relative="1" as="geometry" />
        </mxCell>
        <mxCell id="ewB_EQgGH9OoBPIya-YJ-6" value="ALB_DNS_80" style="edgeLabel;html=1;align=center;verticalAlign=middle;resizable=0;points=[];" parent="ewB_EQgGH9OoBPIya-YJ-3" vertex="1" connectable="0">
          <mxGeometry x="-0.256" y="-2" relative="1" as="geometry">
            <mxPoint x="14" y="-2" as="offset" />
          </mxGeometry>
        </mxCell>
        <mxCell id="ewB_EQgGH9OoBPIya-YJ-1" value="Client" style="rounded=0;whiteSpace=wrap;html=1;" parent="1" vertex="1">
          <mxGeometry x="160" y="180" width="120" height="60" as="geometry" />
        </mxCell>
        <mxCell id="ewB_EQgGH9OoBPIya-YJ-5" value="" style="edgeStyle=orthogonalEdgeStyle;rounded=0;orthogonalLoop=1;jettySize=auto;html=1;" parent="1" source="ewB_EQgGH9OoBPIya-YJ-2" target="ewB_EQgGH9OoBPIya-YJ-4" edge="1">
          <mxGeometry relative="1" as="geometry" />
        </mxCell>
        <mxCell id="ewB_EQgGH9OoBPIya-YJ-8" value="" style="edgeStyle=orthogonalEdgeStyle;rounded=0;orthogonalLoop=1;jettySize=auto;html=1;" parent="1" source="ewB_EQgGH9OoBPIya-YJ-4" target="ewB_EQgGH9OoBPIya-YJ-7" edge="1">
          <mxGeometry relative="1" as="geometry">
            <Array as="points">
              <mxPoint x="730" y="90" />
            </Array>
          </mxGeometry>
        </mxCell>
        <mxCell id="ewB_EQgGH9OoBPIya-YJ-2" value="Listener:80" style="rounded=0;whiteSpace=wrap;html=1;" parent="1" vertex="1">
          <mxGeometry x="440" y="180" width="120" height="60" as="geometry" />
        </mxCell>
        <mxCell id="ewB_EQgGH9OoBPIya-YJ-10" value="" style="edgeStyle=orthogonalEdgeStyle;rounded=0;orthogonalLoop=1;jettySize=auto;html=1;" parent="1" source="ewB_EQgGH9OoBPIya-YJ-4" target="ewB_EQgGH9OoBPIya-YJ-9" edge="1">
          <mxGeometry relative="1" as="geometry">
            <Array as="points">
              <mxPoint x="730" y="330" />
            </Array>
          </mxGeometry>
        </mxCell>
        <mxCell id="ewB_EQgGH9OoBPIya-YJ-4" value="ALB" style="rounded=0;whiteSpace=wrap;html=1;" parent="1" vertex="1">
          <mxGeometry x="670" y="180" width="120" height="60" as="geometry" />
        </mxCell>
        <mxCell id="ewB_EQgGH9OoBPIya-YJ-7" value="frontend_tg:3000" style="rounded=0;whiteSpace=wrap;html=1;fillColor=light-dark(#FFCC99,var(--ge-dark-color, #121212));" parent="1" vertex="1">
          <mxGeometry x="910" y="60" width="120" height="60" as="geometry" />
        </mxCell>
        <mxCell id="ewB_EQgGH9OoBPIya-YJ-12" value="" style="edgeStyle=orthogonalEdgeStyle;rounded=0;orthogonalLoop=1;jettySize=auto;html=1;" parent="1" source="ewB_EQgGH9OoBPIya-YJ-9" target="ewB_EQgGH9OoBPIya-YJ-11" edge="1">
          <mxGeometry relative="1" as="geometry" />
        </mxCell>
        <mxCell id="ewB_EQgGH9OoBPIya-YJ-9" value="backend_tg:8080" style="rounded=0;whiteSpace=wrap;html=1;fillColor=light-dark(#FFCC99,var(--ge-dark-color, #121212));" parent="1" vertex="1">
          <mxGeometry x="910" y="310" width="120" height="60" as="geometry" />
        </mxCell>
        <mxCell id="ewB_EQgGH9OoBPIya-YJ-11" value="mongoDB" style="rounded=0;whiteSpace=wrap;html=1;" parent="1" vertex="1">
          <mxGeometry x="1270" y="310" width="120" height="60" as="geometry" />
        </mxCell>
      </root>
    </mxGraphModel>
  </diagram>
</mxfile>
